# xmcd
#
# Track frame offsets: 
#        150
#        11551
#        23277
#        38660
#        50811
#        62512
#        74118
#        86554
#        97070
#        107646
#        117797
#        129000
#        140739
#        151763
#
# Disc length: 2169 seconds
#
# Revision: 0
# Processed by: cddbd v1.5.1PL0 Copyright (c) Steve Scherf et al.
# Submitted via: ExactAudioCopy v0.95a5
#
DISCID=b208770e
DTITLE=Patsy Cline - I Can't Forget
DYEAR=2005
DGENRE=Country
TTITLE0=Just Out Of Reach
TTITLE1=Walkin' After Midnight
TTITLE2=Then You'll Know
TTITLE3=Today, Tomorrow, And Forever
TTITLE4=I've Loved And Lost Again
TTITLE5=The Heart You Break May Be Your Own
TTITLE6=A Poor Man's Roses (Or A Rich Man's Gold)
TTITLE7=Three Cigarettes In An Ashtray
TTITLE8=Walking Dream
TTITLE9=Turn The Cards Slowly
TTITLE10=Stop The World (And Let Me Off)
TTITLE11=Crazy Dreams
TTITLE12=I Cried All The Way To The Altar
TTITLE13=Hidin' Out
EXTD=
EXTT0=
EXTT1=
EXTT2=
EXTT3=
EXTT4=
EXTT5=
EXTT6=
EXTT7=
EXTT8=
EXTT9=
EXTT10=
EXTT11=
EXTT12=
EXTT13=
PLAYORDER=
